<svg id="Capa_1" enable-background="new 0 0 512 512" height="512" viewBox="0 0 512 512" width="512" xmlns="http://www.w3.org/2000/svg"><g><path d="m476.566 81.649h-39.19v-3.333c0-20.719-16.855-37.574-37.574-37.574s-37.574 16.855-37.574 37.574v3.333h-68.653v-3.333c0-20.719-16.855-37.574-37.574-37.574s-37.574 16.855-37.574 37.574v3.333h-68.653v-3.333c0-20.719-16.855-37.574-37.574-37.574s-37.574 16.855-37.574 37.574v3.333h-39.19c-19.54 0-35.436 16.01-35.436 35.689v318.231c0 19.679 15.896 35.689 35.434 35.689h441.133c19.538 0 35.434-16.01 35.434-35.689v-318.231c-.001-19.679-15.897-35.689-35.435-35.689zm-94.338-3.333c0-9.69 7.884-17.574 17.574-17.574s17.574 7.884 17.574 17.574v3.333h-35.148zm-143.802 0c0-9.69 7.884-17.574 17.574-17.574s17.574 7.884 17.574 17.574v3.333h-35.148zm-143.802 0c0-9.69 7.884-17.574 17.574-17.574 9.691 0 17.574 7.884 17.574 17.574v3.333h-35.148zm-74.624 39.022c0-8.65 6.924-15.688 15.434-15.688h39.208c.602 20.196 17.217 36.44 37.557 36.44h27.574c5.522 0 10-4.477 10-10 0-5.522-4.478-10-10-10h-27.574c-9.309 0-16.952-7.276-17.538-16.44h123.783c.602 20.196 17.217 36.44 37.557 36.44h27.574c5.523 0 10-4.477 10-10 0-5.522-4.477-10-10-10h-27.575c-9.31 0-16.952-7.276-17.538-16.44h123.783c.602 20.196 17.217 36.44 37.557 36.44h27.574c5.522 0 10-4.477 10-10 0-5.522-4.478-10-10-10h-27.574c-9.31 0-16.952-7.276-17.538-16.44h94.303c8.51 0 15.434 7.038 15.434 15.688v37.193h-472.001zm79.28 57.193h313.44v212.254h-313.44zm392.72 261.038c0 8.65-6.924 15.689-15.434 15.689h-441.132c-8.51 0-15.434-7.038-15.434-15.689v-261.038h59.28v222.254c0 5.522 4.478 10 10 10h333.44c5.522 0 10-4.478 10-10v-222.254h59.28z"/><path d="m307.53 218.604h-21.843c-5.522 0-10 4.478-10 10 0 5.523 4.478 10 10 10h11.843v94.384c0 5.522 4.478 10 10 10s10-4.478 10-10v-104.384c0-5.523-4.477-10-10-10z"/><path d="m266.768 254.542c0-19.933-16.217-36.148-36.149-36.148-17.235 0-32.153 12.261-35.47 29.153-1.064 5.419 2.467 10.675 7.886 11.739 5.421 1.064 10.675-2.467 11.739-7.886 1.48-7.537 8.144-13.007 15.845-13.007 8.905 0 16.149 7.244 16.149 16.148s-7.244 16.148-16.149 16.148c-5.522 0-10 4.478-10 10s4.478 10 10 10c8.905 0 16.149 7.244 16.149 16.148s-7.244 16.148-16.149 16.148c-8.012 0-14.887-5.969-15.992-13.889-.104-.739-.156-1.5-.156-2.26 0-5.522-4.477-10-10-10-5.522 0-10 4.478-10 10 0 1.686.117 3.38.349 5.029 2.475 17.741 17.866 31.119 35.8 31.119 19.933 0 36.149-16.216 36.149-36.148 0-10.274-4.309-19.561-11.214-26.148 6.904-6.585 11.213-15.872 11.213-26.146z"/></g></svg>