<svg id="Capa_1" enable-background="new 0 0 512 512" height="512" viewBox="0 0 512 512" width="512" xmlns="http://www.w3.org/2000/svg"><g><path d="m138.489 0c-66.146 0-119.961 53.567-119.961 119.411 0 65.843 53.814 119.41 119.961 119.41 66.146 0 119.961-53.567 119.961-119.41 0-65.844-53.814-119.411-119.961-119.411zm0 218.821c-55.118 0-99.961-44.595-99.961-99.41 0-54.816 44.843-99.411 99.961-99.411s99.961 44.595 99.961 99.411c0 54.815-44.843 99.41-99.961 99.41z"/><path d="m151.281 111.237c-1.459-.513-2.85-1.007-4.175-1.481v-29.16c3.27 1.11 5.546 2.817 6.698 4.45 3.184 4.513 9.423 5.592 13.936 2.408 4.514-3.183 5.592-9.422 2.408-13.936-4.479-6.35-12.539-11.667-23.042-13.481v-1.51c0-5.523-4.477-10-10-10-5.522 0-10 4.477-10 10v2.249c-1.317.301-2.652.652-4.006 1.058-12.112 3.631-21.25 15.344-22.221 28.484-.959 12.981 5.975 24.252 18.547 30.151 1.704.799 4.339 1.893 7.68 3.194v35.159c-4.528-1.439-8.647-3.756-11.36-7.108-3.476-4.293-9.771-4.955-14.064-1.48s-4.955 9.772-1.48 14.064c6.894 8.516 17.011 13.124 26.905 15.133v.862c0 5.523 4.478 10 10 10 5.523 0 10-4.477 10-10v-.109c20.942-2.817 30.094-16.521 31.643-28.767 2.174-17.204-9.121-33.726-27.469-40.18zm-30.455-19.445c.31-4.202 2.893-8.217 6.28-10.068v20.234c-4.492-2.363-6.604-5.779-6.28-10.166zm38.08 57.117c-.694 5.495-4.922 9.361-11.8 10.963v-28.772c9.104 4.195 12.542 11.951 11.8 17.809z"/><path d="m112.657 334.729h-77.259c-5.522 0-10 4.477-10 10v157.271c0 5.523 4.478 10 10 10h77.259c5.522 0 10-4.477 10-10v-157.271c0-5.523-4.477-10-10-10zm-10 157.271h-57.259v-137.271h57.259z"/><path d="m236.263 264.898h-77.259c-5.523 0-10 4.477-10 10v227.102c0 5.523 4.477 10 10 10h77.259c5.523 0 10-4.477 10-10v-227.102c0-5.522-4.478-10-10-10zm-10 227.102h-57.259v-207.102h57.259z"/><path d="m359.867 195.068h-77.259c-5.522 0-10 4.477-10 10v296.932c0 5.523 4.478 10 10 10h77.259c5.522 0 10-4.477 10-10v-296.932c0-5.523-4.477-10-10-10zm-10 296.932h-57.259v-276.932h57.259z"/><path d="m483.472 125.237h-77.259c-5.522 0-10 4.477-10 10v366.763c0 5.523 4.478 10 10 10h77.259c5.522 0 10-4.477 10-10v-366.763c0-5.523-4.478-10-10-10zm-10 366.763h-57.259v-346.763h57.259z"/></g></svg>