<svg id="Capa_1" enable-background="new 0 0 512 512" height="512" viewBox="0 0 512 512" width="512" xmlns="http://www.w3.org/2000/svg"><path d="m486.287 86.157h-460.574c-14.178 0-25.713 11.539-25.713 25.722v288.241c0 14.183 11.535 25.722 25.713 25.722h460.574c14.178 0 25.713-11.539 25.713-25.722v-288.241c0-14.183-11.535-25.722-25.713-25.722zm-175.942 64.456h106.285c3.717 15.225 15.722 27.236 30.939 30.956v68.032c-15.218 3.72-27.223 15.731-30.939 30.956h-106.285zm0 194.401h175.942c1.963 0 3.875-.222 5.713-.64v15.333c0 3.155-2.563 5.722-5.713 5.722h-175.942zm181.655-233.135v207.412c0 3.155-2.563 5.722-5.713 5.722h-175.942v-24.456h115.088c5.523 0 10-4.477 10-10 0-12.216 9.931-22.155 22.137-22.155 5.522 0 10-4.477 10-10v-85.634c0-5.523-4.478-10-10-10-12.206 0-22.137-9.939-22.137-22.155 0-5.523-4.477-10-10-10h-115.088v-24.456h175.942c3.151 0 5.713 2.567 5.713 5.722zm-472 232.494c1.838.419 3.75.64 5.713.64h175.942v20.414h-175.942c-3.15 0-5.713-2.567-5.713-5.722zm181.655-63.815h-106.285c-3.717-15.225-15.722-27.236-30.939-30.956v-68.032c15.218-3.72 27.223-15.731 30.939-30.956h106.285zm-181.655-168.679c0-3.155 2.563-5.722 5.713-5.722h175.942v24.456h-115.088c-5.522 0-10 4.477-10 10 0 12.216-9.931 22.155-22.137 22.155-5.522 0-10 4.477-10 10v85.634c0 5.523 4.478 10 10 10 12.206 0 22.137 9.939 22.137 22.155 0 5.523 4.478 10 10 10h115.088v24.456h-175.942c-3.15 0-5.713-2.567-5.713-5.722zm0 288.242v-15.333c1.838.419 3.75.64 5.713.64h175.942v20.415h-175.942c-3.15 0-5.713-2.567-5.713-5.722zm201.655 5.722v-299.686h68.689v299.686zm264.632 0h-175.942v-20.415h175.942c1.963 0 3.875-.221 5.713-.64v15.333c0 3.155-2.562 5.722-5.713 5.722z"/></svg>